{"title":"Ek Thi Daayan (2013) SCam Rip Horror Hindi Movie","uid":8389399,"size":787396874,"categoryP":"video","categoryS":"movies","magnet":"?xt=urn:btih:d78fbb5ccfa3d0e2fade85fe6a65f6a447a3c6c4&amp;dn=Ek+Thi+Daayan+%282013%29+SCam+Rip+Horror+Hindi+Movie&amp;tr=udp%3A%2F%2Ftracker.openbittorrent.com%3A80&amp;tr=udp%3A%2F%2Fopen.demonii.com%3A1337&amp;tr=udp%3A%2F%2Ftracker.coppersurfer.tk%3A6969&amp;tr=udp%3A%2F%2Fexodus.desync.com%3A6969","seeders":1,"leechers":0,"uploader":"shaan666","files":-1,"time":1366379630,"description":"Ek Thi Daayan (2013)\n\n\n &lt;a href=&quot;\nhttp://www.shotpix.com/images/11719834236445816619.jpg&quot; rel=&quot;nofollow&quot; target=&quot;_NEW&quot;&gt;\nhttp://www.shotpix.com/images/11719834236445816619.jpg&lt;/a&gt;\n\n\n\n\n[B]INFO[/B]\n\n[CODE]General\nFormat : MPEG-PS\nFile size : 751 MiB\nDuration : 2h 0mn\nOverall bit rate : 869 Kbps\n\nVideo\nID : 224 (0xE0)\nFormat : MPEG Video\nFormat version : Version 2\nFormat settings, BVOP : Yes\nFormat settings, Matrix : Custom\nFormat settings, GOP : Variable\nDuration : 2h 0mn\nBit rate : 788 Kbps\nMaximum bit rate : 1 150 Kbps\nWidth : 352 pixels\nHeight : 288 pixels\nDisplay aspect ratio : 1.222\nFrame rate : 25.000 fps\nStandard : PAL\nColor space : YUV\nBit depth : 8 bits\nScan type : Progressive\nCompression mode : Lossy\nBits/(Pixel*Frame) : 0.311\nStream size : 681 MiB (91%)[/CODE]\n\n[CODE]Audio\nID : 192 (0xC0)\nFormat : MPEG Audio\nFormat version : Version 1\nFormat profile : Layer 2\nDuration : 2h 0mn\nBit rate mode : Constant\nBit rate : 64.0 Kbps\nChannel(s) : 2 channels\nSampling rate : 48.0 KHz\nCompression mode : Lossy\nStream size : 55.3 MiB (7%)[/CODE]\n\n\n\n\n\n\n\nSCREEN SHOTS\n &lt;a href=&quot;\nhttp://www.shotpix.com/images/56686768826206608258.jpg&quot; rel=&quot;nofollow&quot; target=&quot;_NEW&quot;&gt;\nhttp://www.shotpix.com/images/56686768826206608258.jpg&lt;/a&gt;","torrent":{"xt":"urn:btih:d78fbb5ccfa3d0e2fade85fe6a65f6a447a3c6c4","amp;dn":"Ek+Thi+Daayan+%282013%29+SCam+Rip+Horror+Hindi+Movie","amp;tr":["udp%3A%2F%2Ftracker.openbittorrent.com%3A80","udp%3A%2F%2Fopen.demonii.com%3A1337","udp%3A%2F%2Ftracker.coppersurfer.tk%3A6969","udp%3A%2F%2Fexodus.desync.com%3A6969"],"infoHash":"d78fbb5ccfa3d0e2fade85fe6a65f6a447a3c6c4","infoHashBuffer":{"type":"Buffer","data":[215,143,187,92,207,163,208,226,250,222,133,254,106,101,246,164,71,163,198,196]},"announce":[],"urlList":[]}}